<svg xmlns="http://www.w3.org/2000/svg" viewBox="0 0 48 48" width="48" height="48">
	<style>
		tspan { white-space:pre }
		.shp0 { fill: #efb400 } 
	</style>
	<g id="Vrstva 1">
		<path id="&lt;Compound Path&gt;" class="shp0" d="M4 34L8 34L8 35L6 35L6 37L8 37L8 38L4 38L4 40L10 40L10 32L4 32L4 34ZM6 16L8 16L8 8L4 8L4 10L6 10L6 16ZM4 22L7.6 22L4 26.2L4 28L10 28L10 26L6.4 26L10 21.8L10 20L4 20L4 22ZM14 10L14 14L42 14L42 10L14 10ZM14 38L42 38L42 34L14 34L14 38ZM14 26L42 26L42 22L14 22L14 26Z" />
	</g>
</svg>